<?xml version="1.0" standalone="no"?>
<!DOCTYPE svg PUBLIC "-//W3C//DTD SVG 20010904//EN"
 "http://www.w3.org/TR/2001/REC-SVG-20010904/DTD/svg10.dtd">
<svg version="1.0" xmlns="http://www.w3.org/2000/svg"
 width="512.000000pt" height="512.000000pt" viewBox="0 0 512.000000 512.000000"
 preserveAspectRatio="xMidYMid meet">

<g transform="translate(0.000000,512.000000) scale(0.100000,-0.100000)"
fill="white" stroke="none">
<path d="M381 5100 c-162 -43 -291 -162 -353 -326 l-23 -59 0 -2155 0 -2155
27 -68 c61 -153 175 -262 328 -313 53 -18 134 -19 2205 -19 l2150 0 59 23
c123 46 240 149 290 256 60 126 57 -10 54 2308 l-3 2123 -27 68 c-34 83 -71
138 -134 198 -68 63 -128 96 -219 119 -77 20 -110 20 -2179 19 -2045 0 -2103
-1 -2175 -19z m2824 -774 c63 -63 117 -221 135 -398 5 -56 12 -104 15 -106 13
-14 425 -82 490 -81 37 0 43 4 85 60 61 82 181 202 255 255 34 24 97 60 141
81 77 37 82 38 189 38 129 0 172 -15 212 -76 21 -31 25 -51 25 -102 0 -93 -43
-164 -134 -220 -77 -48 -301 -96 -445 -97 l-61 0 -55 -107 c-122 -240 -191
-514 -217 -863 -11 -154 -13 -305 -4 -402 l7 -67 51 5 c313 30 472 85 601 205
75 71 112 139 144 269 23 91 31 106 55 97 11 -4 16 -19 16 -44 0 -51 -59 -219
-101 -289 -48 -80 -163 -184 -251 -227 -127 -62 -316 -107 -454 -107 l-55 0 6
-47 c13 -93 57 -278 87 -362 131 -374 342 -572 607 -571 84 1 133 15 191 55
56 39 86 88 151 247 31 79 62 144 68 146 16 5 14 -73 -4 -141 -31 -119 -108
-234 -201 -298 -68 -46 -145 -69 -236 -69 -73 0 -82 -2 -107 -27 -20 -21 -31
-49 -44 -110 -10 -45 -22 -85 -28 -88 -27 -17 -203 124 -305 243 -203 238
-326 529 -382 902 l-17 115 -45 2 c-25 2 -162 13 -304 25 -209 18 -261 19
-264 9 -9 -28 -246 -373 -334 -486 -126 -162 -404 -440 -543 -543 -342 -253
-717 -384 -1095 -383 -171 0 -280 17 -416 65 -257 92 -425 253 -465 444 -18
87 -7 224 23 298 128 311 508 553 1055 673 453 99 845 113 1498 55 l70 -6 63
119 c39 76 62 132 62 153 0 53 -21 107 -58 150 -42 49 -79 70 -127 70 -39 0
-39 1 -15 65 22 56 111 101 182 92 64 -9 108 -64 108 -139 1 -47 11 -26 64
132 84 253 141 516 152 710 6 100 6 108 -12 113 -26 8 -578 111 -729 136 -429
71 -681 76 -930 16 -305 -73 -521 -247 -602 -484 -45 -131 -25 -302 47 -407
153 -221 554 -304 857 -176 269 113 420 349 358 559 -25 85 -129 177 -252 223
-110 41 -307 36 -412 -11 -70 -31 -99 -64 -121 -141 -21 -68 -40 -96 -40 -58
0 126 116 241 277 275 189 40 374 -8 498 -130 68 -66 97 -129 103 -219 14
-225 -116 -415 -366 -534 -307 -145 -685 -90 -908 133 -158 157 -207 420 -119
638 136 338 466 517 953 517 258 0 416 -26 1020 -171 205 -49 376 -89 379 -89
12 0 -7 156 -27 228 -11 40 -36 104 -55 142 -33 65 -44 118 -28 133 13 14 45
6 68 -17z"/>
<path d="M4344 4082 c-114 -41 -228 -131 -348 -277 l-57 -70 33 -3 c25 -3 37
2 51 20 92 117 112 131 270 187 114 40 134 39 72 -3 -72 -49 -135 -107 -173
-160 l-33 -46 63 6 c180 18 313 77 355 157 20 40 20 117 -1 149 -35 53 -144
72 -232 40z"/>
<path d="M3346 3683 c-44 -437 -140 -755 -358 -1182 -54 -107 -95 -198 -91
-202 4 -4 36 -9 69 -11 l62 -4 27 45 c41 68 244 431 305 546 65 122 171 303
342 583 72 117 128 216 125 219 -3 3 -61 11 -129 19 -68 7 -169 20 -225 29
-57 8 -107 15 -112 15 -5 0 -12 -26 -15 -57z"/>
<path d="M3871 3642 c-96 -147 -424 -713 -599 -1033 -49 -91 -111 -200 -136
-243 -26 -44 -45 -81 -42 -83 6 -7 167 -21 308 -28 73 -3 153 -8 178 -10 l45
-5 1 188 c1 103 6 237 13 297 35 321 137 641 280 877 23 37 41 69 41 72 0 4
-15 6 -32 6 -27 0 -37 -7 -57 -38z"/>
<path d="M1740 2269 c-308 -22 -585 -91 -800 -199 -246 -124 -434 -308 -506
-496 -36 -94 -45 -246 -19 -340 49 -181 211 -316 451 -376 169 -42 444 -27
683 38 395 107 785 407 1144 881 78 103 277 400 277 413 0 8 -60 20 -106 20
-28 0 -36 -9 -94 -102 -160 -259 -304 -445 -479 -618 -215 -213 -414 -334
-631 -385 -85 -19 -83 -20 -51 16 35 38 59 110 68 201 9 105 73 188 144 188
22 0 22 -2 15 -103 -9 -144 -18 -170 -71 -208 -25 -18 -43 -34 -41 -36 7 -7
148 55 210 93 225 136 462 380 663 684 85 127 177 280 172 284 -7 6 -371 36
-544 46 -193 11 -320 11 -485 -1z"/>
</g>
</svg>
