<svg xmlns="http://www.w3.org/2000/svg" xmlns:xlink="http://www.w3.org/1999/xlink" width="141.25" height="50.011" viewBox="0 0 141.25 50.011">
  <defs>
    <linearGradient id="linear-gradient" y1="0.5" x2="1" y2="0.5" gradientUnits="objectBoundingBox">
      <stop offset="0" stop-color="#15c7ff"/>
      <stop offset="1" stop-color="#ff3adf"/>
    </linearGradient>
  </defs>
  <path id="ic_slick_plus_logo" d="M272.961,27.938A9.059,9.059,0,1,0,282.02,37,9.059,9.059,0,0,0,272.961,27.938Zm5.8,10.189h-4.667v4.665H271.83V38.127h-4.667v-2.26h4.667V31.2h2.259v4.666h4.667ZM164.4,67.7a8.855,8.855,0,0,1-1.01,4.252,9.659,9.659,0,0,1-2.788,3.206,13.419,13.419,0,0,1-4.216,2.057,18.368,18.368,0,0,1-5.3.731q-1.254,0-2.648-.139t-2.788-.418q-1.4-.279-2.683-.662a16.437,16.437,0,0,1-2.2-.8l1.045-4.949a31.828,31.828,0,0,0,4.148,1.393,19.99,19.99,0,0,0,5.192.628,10.748,10.748,0,0,0,5.054-1.08,3.889,3.889,0,0,0,1.5-5.436,5.755,5.755,0,0,0-1.464-1.534,12.209,12.209,0,0,0-2.126-1.218q-1.22-.56-2.544-1.115-1.812-.7-3.625-1.57a16.6,16.6,0,0,1-3.311-2.09,10.408,10.408,0,0,1-2.439-2.823,7.436,7.436,0,0,1-.942-3.833,8.2,8.2,0,0,1,1.011-4.183,8.681,8.681,0,0,1,2.649-2.857,11.511,11.511,0,0,1,3.8-1.638,18.869,18.869,0,0,1,4.461-.523,22.353,22.353,0,0,1,5.158.593,19.626,19.626,0,0,1,4.531,1.638l-1.045,4.74a20.769,20.769,0,0,0-4.217-1.5,19.025,19.025,0,0,0-4.426-.523,9.131,9.131,0,0,0-4.113.836,3.115,3.115,0,0,0-1.673,3.067,2.733,2.733,0,0,0,.593,1.777,6.179,6.179,0,0,0,1.533,1.325,15.464,15.464,0,0,0,2.056,1.08q1.115.487,2.091.975.906.418,2.719,1.186a20.57,20.57,0,0,1,3.59,1.987,12.823,12.823,0,0,1,3.1,3.032A7.246,7.246,0,0,1,164.4,67.7Zm11.85.843a5.122,5.122,0,0,0,.8,3.1,3.207,3.207,0,0,0,2.752,1.079,12.413,12.413,0,0,0,3.138-.418l.279,4.729a15.851,15.851,0,0,1-5.089.777q-4.391,0-6.273-2.579a10.466,10.466,0,0,1-1.882-6.343V28.043h6.273ZM186.981,33.9a4,4,0,0,1,1.081-2.788,4.122,4.122,0,0,1,5.785,0,4.14,4.14,0,0,1,0,5.576,4.121,4.121,0,0,1-5.785,0A4,4,0,0,1,186.981,33.9Zm.836,43.355V43.795h6.273V77.253Zm28.557-34.224a26.388,26.388,0,0,1,5.227.495,17.565,17.565,0,0,1,4.182,1.343l-.906,4.854a20.907,20.907,0,0,0-7.945-1.6q-5.647,0-8.33,3.441a14.1,14.1,0,0,0-2.685,8.932,14.093,14.093,0,0,0,2.685,8.932q2.681,3.442,8.33,3.44a20.947,20.947,0,0,0,7.945-1.6l.906,4.855a17.484,17.484,0,0,1-4.392,1.343,27.492,27.492,0,0,1-5.018.493,17.872,17.872,0,0,1-7.319-1.4,14.732,14.732,0,0,1-5.228-3.806,16.089,16.089,0,0,1-3.137-5.59,21.8,21.8,0,0,1,0-13.339,16.1,16.1,0,0,1,3.137-5.587,14.734,14.734,0,0,1,5.228-3.805A17.827,17.827,0,0,1,216.375,43.029Zm15.333,34.224V28.043h6.274V59.618l13.384-15.823h7.249L244.465,60.245,259.8,77.253h-7.6l-14.22-16.589V77.253Z" transform="translate(-140.77 -27.938)" fill="url(#linear-gradient)"/>
</svg>
