<svg xmlns="http://www.w3.org/2000/svg" viewBox="0 0 64 64">
  <g fill="#d4a73a">
    <rect x="3" y="16" width="8" height="4" rx="1"/><rect x="53" y="16" width="8" height="4" rx="1"/>
    <rect x="3" y="28" width="8" height="4" rx="1"/><rect x="53" y="28" width="8" height="4" rx="1"/>
    <rect x="3" y="40" width="8" height="4" rx="1"/><rect x="53" y="40" width="8" height="4" rx="1"/>
  </g>
  <rect x="10" y="9" width="44" height="46" rx="6" fill="#16181c" stroke="#3b4453" stroke-width="1.5"/>
  <circle cx="16.5" cy="15.5" r="2" fill="#0b0c0e"/>
  <rect x="15" y="23" width="34" height="6" rx="1" fill="#22d3ee"/>
  <rect x="35" y="15" width="6" height="35" rx="1" fill="#f97316"/>
  <rect x="32.5" y="20.5" width="11" height="11" rx="1" fill="#0b1220" stroke="#fff" stroke-width="2"/>
  <path d="M35 23 L41 29 M41 23 L35 29" stroke="#fff" stroke-width="1.8" stroke-linecap="round"/>
</svg>
